<?xml version="1.0" encoding="UTF-8"?>
<svg id="Layer_2" data-name="Layer 2" xmlns="http://www.w3.org/2000/svg" viewBox="0 0 284.21 284.21">
  <defs>
    <style>
      .cls-1 {
        fill: #141618;
      }
    </style>
  </defs>
  <g id="Layer_1-2" data-name="Layer 1">
    <path class="cls-1" d="M274.11,132.33h-89.21c-7.09,0-10.63-8.57-5.62-13.58l63.04-63.04c3.7-3.7,4.16-9.74.68-13.65-3.77-4.25-10.28-4.4-14.24-.44l-63.3,63.3c-5.01,5.01-13.58,1.46-13.58-5.62V9.78c0-5.4-4.38-9.78-9.78-9.78h0c-5.4,0-9.78,4.38-9.78,9.78v89.54c0,7.09-8.57,10.63-13.58,5.62l-63.32-63.32c-3.97-3.97-10.5-3.81-14.27.47-3.44,3.91-3,9.9.68,13.59l63.08,63.08c5.01,5.01,1.46,13.58-5.62,13.58H10.1c-5.38,0-10,4.21-10.1,9.59-.1,5.48,4.31,9.96,9.77,9.96h89.53c7.09,0,10.63,8.57,5.62,13.58l-63.06,63.06c-3.68,3.68-4.12,9.67-.68,13.59,3.76,4.29,10.3,4.44,14.27.48l63.31-63.31c5.01-5.01,13.58-1.46,13.58,5.62v89.53c0,5.4,4.38,9.78,9.78,9.78h0c5.4,0,9.78-4.38,9.78-9.78v-89.52c0-7.09,8.57-10.63,13.58-5.62l63.06,63.06c3.68,3.68,9.67,4.12,13.59.68,4.29-3.77,4.44-10.3.48-14.27l-63.3-63.3c-5.01-5.01-1.46-13.58,5.62-13.58h89.53c5.46,0,9.87-4.48,9.77-9.96-.1-5.38-4.72-9.59-10.1-9.59Z"/>
  </g>
</svg>