<?xml version="1.0" encoding="UTF-8"?>
<svg id="Layer_2" data-name="Layer 2" xmlns="http://www.w3.org/2000/svg" viewBox="0 0 23.36 42.69">
  <defs>
    <style>
      .cls-1 {
        fill: #808484;
      }
    </style>
  </defs>
  <g id="Layer_1-2" data-name="Layer 1">
    <g>
      <rect class="cls-1" x="3.57" y="0" width="16.22" height="28.73" rx="8.11" ry="8.11"/>
      <path class="cls-1" d="M21.85,16.61v3.83c0,5.32-3.94,9.99-9.23,10.47-6.03.54-11.1-4.21-11.1-10.12v-4.18c0-.42-.34-.76-.76-.76h0c-.42,0-.76.34-.76.76v4.18c0,5.27,3.51,9.73,8.32,11.17,1.52.46,2.6,1.79,2.6,3.37v6.61c0,.42.34.76.76.76h0c.42,0,.76-.34.76-.76v-6.61c0-1.58,1.08-2.92,2.6-3.37,4.81-1.44,8.32-5.9,8.32-11.17v-4.18c0-.42-.34-.76-.76-.76h0c-.42,0-.76.34-.76.76Z"/>
    </g>
  </g>
</svg>