<?xml version="1.0" encoding="UTF-8"?>
<svg id="Layer_2" data-name="Layer 2" xmlns="http://www.w3.org/2000/svg" viewBox="0 0 21.81 21.81">
  <defs>
    <style>
      .cls-1 {
        fill: #808484;
      }
    </style>
  </defs>
  <g id="Layer_1-2" data-name="Layer 1">
    <path class="cls-1" d="M21.06,10.15h-6.9c-1.38,0-2.51-1.12-2.51-2.51V.75c0-.41-.34-.75-.75-.75h0c-.41,0-.75.34-.75.75v6.9c0,1.38-1.12,2.51-2.51,2.51H.75c-.41,0-.75.34-.75.75h0c0,.41.34.75.75.75h6.9c1.38,0,2.51,1.12,2.51,2.51v6.9c0,.41.34.75.75.75h0c.41,0,.75-.34.75-.75v-6.9c0-1.38,1.12-2.51,2.51-2.51h6.9c.41,0,.75-.34.75-.75h0c0-.41-.34-.75-.75-.75Z"/>
  </g>
</svg>