<?xml version="1.0" encoding="UTF-8"?>
<svg id="Layer_2" data-name="Layer 2" xmlns="http://www.w3.org/2000/svg" viewBox="0 0 301.9 219.53">
  <defs>
    <style>
      .cls-1 {
        fill: #131619;
      }
    </style>
  </defs>
  <g id="Layer_1-2" data-name="Layer 1">
    <path class="cls-1" d="M45.09,89.76c-3.56,3.56-1.04,9.64,3.99,9.64h242.44c5.73-.01,10.38,4.64,10.38,10.37s-4.65,10.38-10.38,10.38H49.08c-5.03,0-7.57,6.06-4.02,9.62,21.6,21.59,72.05,72.03,72.05,72.03,4.05,4.05,4.05,10.63,0,14.68-4.05,4.05-10.63,4.05-14.68,0,0,0-75.34-75.34-99.41-99.41-4.05-4.05-4.02-10.59.03-14.64L102.44,3.04c4.05-4.05,10.63-4.05,14.68,0,4.05,4.05,4.05,10.63,0,14.68L45.09,89.76Z"/>
  </g>
</svg>