<?xml version="1.0" encoding="UTF-8"?>
<svg id="Layer_2" data-name="Layer 2" xmlns="http://www.w3.org/2000/svg" viewBox="0 0 39.48 28.71">
  <defs>
    <style>
      .cls-1 {
        fill: #131619;
      }
    </style>
  </defs>
  <g id="Layer_1-2" data-name="Layer 1">
    <path class="cls-1" d="M5.9,11.74c-.47.47-.14,1.26.52,1.26h31.7c.75,0,1.36.61,1.36,1.36s-.61,1.36-1.36,1.36H6.42c-.66,0-.99.79-.53,1.26,2.82,2.82,9.42,9.42,9.42,9.42.53.53.53,1.39,0,1.92s-1.39.53-1.92,0c0,0-9.85-9.85-13-13-.53-.53-.53-1.38,0-1.91L13.4.4c.53-.53,1.39-.53,1.92,0s.53,1.39,0,1.92L5.9,11.74Z"/>
  </g>
</svg>