<?xml version="1.0" encoding="UTF-8"?>
<svg id="Layer_2" data-name="Layer 2" xmlns="http://www.w3.org/2000/svg" viewBox="0 0 301.86 301.86">
  <defs>
    <style>
      .cls-1 {
        fill: #131619;
      }
    </style>
  </defs>
  <g id="Layer_1-2" data-name="Layer 1">
    <path class="cls-1" d="M291.48,140.55h-104.7c-14.06,0-25.46-11.4-25.46-25.46V10.38c0-5.73-4.65-10.38-10.38-10.38h0c-5.73,0-10.38,4.65-10.38,10.38v104.71c0,14.06-11.4,25.46-25.46,25.46H10.38c-5.73,0-10.38,4.65-10.38,10.38h0c0,5.73,4.65,10.38,10.38,10.38h106.48c13.08,0,23.69,10.61,23.69,23.69v106.47c0,5.73,4.65,10.38,10.38,10.38h0c5.73,0,10.38-4.65,10.38-10.38v-106.47c0-13.08,10.61-23.69,23.69-23.69h106.47c5.73,0,10.38-4.65,10.38-10.38h0c0-5.73-4.65-10.38-10.38-10.38Z"/>
  </g>
</svg>