<?xml version="1.0" encoding="UTF-8"?>
<svg id="Layer_2" data-name="Layer 2" xmlns="http://www.w3.org/2000/svg" viewBox="0 0 236.06 30">
  <defs>
    <style>
      .cls-1 {
        fill: #000f24;
      }
    </style>
  </defs>
  <g id="Layer_1-2" data-name="Layer 1">
    <g>
      <path class="cls-1" d="M26.35,8.36c6.19,0,10.25,3.91,10.25,10.82s-4.06,10.82-10.25,10.82-10.23-3.91-10.23-10.82,4.06-10.82,10.23-10.82ZM26.35,27.7c4.51,0,7.56-2.99,7.56-8.52s-3.05-8.52-7.56-8.52-7.56,2.99-7.56,8.52,3.07,8.52,7.56,8.52Z"/>
      <path class="cls-1" d="M44.23,9.08v1.74c0,.28.38.4.52.15.88-1.5,2.38-2.26,5.07-2.26h2.6c.16,0,.29.13.29.29v1.81c0,.16-.13.29-.29.29h-2.48c-4.14,0-5.64,2.36-5.64,6.78v11.29c0,.16-.13.29-.29.29h-2.05c-.16,0-.29-.13-.29-.29V9.08c0-.16.13-.29.29-.29h1.97c.16,0,.29.13.29.29Z"/>
      <path class="cls-1" d="M79.76,8.38c4.14,0,6.91,2.09,6.91,6.64v14.2c0,.16-.13.28-.28.28h-2.03c-.16,0-.28-.13-.28-.28v-13.98c0-3.03-1.64-4.57-4.79-4.57-3.61,0-6.11,2.13-6.11,6.56v11.99c0,.16-.13.28-.28.28h-2.03c-.16,0-.28-.13-.28-.28v-13.98c0-3.03-1.56-4.57-4.8-4.57-3.61,0-6.11,2.13-6.11,6.56v11.99c0,.16-.13.28-.28.28h-2.03c-.16,0-.28-.13-.28-.28V9.14c0-.16.13-.28.28-.28h1.95c.16,0,.28.13.28.28v1.71c0,.27.34.39.5.17,1.1-1.5,2.89-2.63,6.24-2.63,4.23,0,5.63,2.1,6.09,3.27.09.23.4.25.51.03.62-1.16,2.38-3.3,6.84-3.3Z"/>
      <path class="cls-1" d="M161.94,8.36c6.19,0,10.25,3.91,10.25,10.82s-4.06,10.82-10.25,10.82-10.23-3.91-10.23-10.82,4.06-10.82,10.23-10.82ZM161.94,27.7c4.51,0,7.56-2.99,7.56-8.52s-3.05-8.52-7.56-8.52-7.56,2.99-7.56,8.52,3.07,8.52,7.56,8.52Z"/>
      <path class="cls-1" d="M179.52,8.85c.16,0,.28.13.28.28v2.2c0,.28.36.39.53.16,1.68-2.42,4.27-3.11,7.03-3.11,4.73,0,7.75,2.36,7.75,7.38v13.46c0,.16-.13.28-.28.28h-2.05c-.16,0-.28-.13-.28-.28v-13.18c0-3.77-2.03-5.35-5.59-5.35-3.91,0-7.01,2.36-7.01,7.27v11.25c0,.16-.13.28-.28.28h-2.05c-.16,0-.28-.13-.28-.28V9.14c0-.16.13-.28.28-.28h1.97Z"/>
      <g>
        <path class="cls-1" d="M146.66,9.14v20.09c0,.16-.13.28-.28.28h-2.06c-.16,0-.28-.13-.28-.28V9.14c0-.16.13-.28.28-.28h2.06c.16,0,.28.13.28.28Z"/>
        <circle class="cls-1" cx="145.34" cy="3.19" r="1.79"/>
      </g>
      <g>
        <path class="cls-1" d="M235.58,9.14v20.09c0,.16-.13.28-.28.28h-2.06c-.16,0-.28-.13-.28-.28V9.14c0-.16.13-.28.28-.28h2.06c.16,0,.28.13.28.28Z"/>
        <circle class="cls-1" cx="234.27" cy="3.19" r="1.79"/>
      </g>
      <path class="cls-1" d="M218.6,8.38c-4.99,0-8.38,2.09-8.85,6.24-.03.26.19.49.45.5h1.65c.23,0,.41-.16.45-.39.47-2.78,2.67-4.09,6.22-4.09s5.41,1.57,5.58,3.83c.06.74-.11,1.38-.59,1.88-.32.3-.79.48-.95.53-.15.05-.4.11-.66.16-.26.05-.48.1-.66.12-.18.03-.45.06-.82.1-.37.04-.57.07-.9.1-.23.02-.59.06-1.09.1-.49.04-.87.08-1.15.1-5.22.55-8.48,2.73-8.48,6.52,0,1.86.61,3.31,1.82,4.35s2.9,1.56,5.06,1.56c3.18,0,6.18-1.15,8.04-3.45.17-.21.5-.09.5.17v2.35c0,.25.2.46.46.46h1.57c.25,0,.46-.2.46-.46v-13.44c0-4.94-2.97-7.25-8.11-7.25ZM224.18,20.2c0,2.6-.95,4.65-2.34,5.84-1.39,1.19-3.18,1.69-5.18,1.69-1.48,0-2.58-.02-3.83-.94-.91-.67-1.31-1.7-1.31-2.93,0-.82.18-1.51.55-2.07s1.06-1.06,1.79-1.37c1.8-.8,3.35-.83,5.2-1.07,1.12-.14,1.91-.25,2.38-.33.46-.08,1.1-.24,1.66-.42.28-.09.48-.18.65-.28.19-.12.43.02.43.24v1.65Z"/>
      <path class="cls-1" d="M101.33,8.38c-4.99,0-8.38,2.09-8.85,6.24-.03.26.19.49.45.5h1.65c.23,0,.41-.16.45-.39.47-2.78,2.67-4.09,6.22-4.09s5.41,1.57,5.58,3.83c.06.74-.11,1.38-.59,1.88-.32.3-.79.48-.95.53-.15.05-.4.11-.66.16-.26.05-.48.1-.66.12-.18.03-.45.06-.82.1-.37.04-.57.07-.9.1-.23.02-.59.06-1.09.1-.49.04-.87.08-1.15.1-5.22.55-8.48,2.73-8.48,6.52,0,1.86.61,3.31,1.82,4.35,1.22,1.04,2.9,1.56,5.06,1.56,3.18,0,6.18-1.15,8.04-3.45.17-.21.5-.09.5.17v2.35c0,.25.2.46.46.46h1.57c.25,0,.46-.2.46-.46v-13.44c0-4.94-2.97-7.25-8.11-7.25ZM106.9,20.2c0,2.6-.95,4.65-2.34,5.84-1.39,1.19-3.18,1.69-5.18,1.69-1.48,0-2.58-.02-3.83-.94-.91-.67-1.31-1.7-1.31-2.93,0-.82.18-1.51.55-2.07s1.06-1.06,1.79-1.37c1.8-.8,3.35-.83,5.2-1.07,1.12-.14,1.91-.25,2.38-.33.46-.08,1.1-.24,1.66-.42.28-.09.48-.18.65-.28.19-.12.43.02.43.24v1.65Z"/>
      <path class="cls-1" d="M139.38,10.86v-1.72c0-.16-.13-.29-.29-.29h-5.88c-.16,0-.29-.13-.29-.29V3.28c0-.16-.13-.29-.29-.29h-2.05c-.16,0-.29.13-.29.29v5.29c0,.16-.13.29-.29.29h-9.45c-.16,0-.29-.13-.29-.29V3.28c0-.16-.13-.29-.29-.29h-2.05c-.16,0-.29.13-.29.29v5.29c0,.16-.13.29-.29.29h-4.51c-.16,0-.29.13-.29.29v1.72c0,.16.13.29.29.29h4.51c.16,0,.29.13.29.29v13.28c0,3.22,1.76,4.79,5,4.79h3.53c.16,0,.29-.13.29-.29v-1.83c0-.16-.13-.29-.29-.29h-5.62c-.16,0-.29-.13-.29-.29v-15.39c0-.16.13-.29.29-.29h9.45c.16,0,.29.13.29.29v13.28c0,3.22,1.76,4.79,5,4.79h3.77c.16,0,.29-.13.29-.29v-1.83c0-.16-.13-.29-.29-.29h-5.87c-.16,0-.28-.13-.28-.28v-15.4c0-.16.13-.29.29-.29h5.88c.16,0,.29-.13.29-.29Z"/>
      <path class="cls-1" d="M14.71.28c0-.16-.13-.28-.28-.28h-4.14c-3.24,0-5,1.58-5,4.79v3.78c0,.16-.13.28-.28.28H.28c-.16,0-.28.13-.28.28v1.73c0,.16.13.28.28.28h4.72c.16,0,.28.13.28.28v17.8c0,.16.13.28.28.28h2.06c.16,0,.28-.13.28-.28V11.43c0-.16.13-.28.28-.28h5.67c.16,0,.28-.13.28-.28v-1.73c0-.16-.13-.28-.28-.28h-5.67c-.16,0-.28-.13-.28-.28V2.54c0-.16.13-.28.28-.28h6.24c.16,0,.28-.13.28-.28V.28Z"/>
    </g>
  </g>
</svg>