<?xml version="1.0" encoding="UTF-8"?>
<svg id="Layer_2" data-name="Layer 2" xmlns="http://www.w3.org/2000/svg" viewBox="0 0 178.65 326.47">
  <defs>
    <style>
      .cls-1 {
        fill: #131619;
      }
    </style>
  </defs>
  <g id="Layer_1-2" data-name="Layer 1">
    <g>
      <rect class="cls-1" x="27.31" y="0" width="124.04" height="219.68" rx="62.02" ry="62.02"/>
      <path class="cls-1" d="M167.07,126.99v29.3c0,40.66-30.1,76.42-70.6,80.05-46.07,4.14-84.9-32.19-84.9-77.42v-31.93c0-3.2-2.59-5.79-5.79-5.79h0c-3.2,0-5.79,2.59-5.79,5.79v31.93c0,40.32,26.88,74.41,63.65,85.45,11.6,3.48,19.89,13.67,19.89,25.78v50.52c0,3.2,2.59,5.79,5.79,5.79h0c3.2,0,5.79-2.59,5.79-5.79v-50.52c0-12.12,8.29-22.3,19.89-25.78,36.77-11.04,63.64-45.13,63.64-85.45v-31.93c0-3.2-2.59-5.79-5.79-5.79h0c-3.2,0-5.79,2.59-5.79,5.79Z"/>
    </g>
  </g>
</svg>