<?xml version="1.0" encoding="UTF-8"?>
<svg id="Layer_2" data-name="Layer 2" xmlns="http://www.w3.org/2000/svg" viewBox="0 0 274.28 178.65">
  <defs>
    <style>
      .cls-1 {
        fill: #1c1814;
      }
    </style>
  </defs>
  <g id="Layer_1-2" data-name="Layer 1">
    <g>
      <rect class="cls-1" x="122.94" y="27.29" width="124.04" height="124.04" rx="62.02" ry="62.02" transform="translate(95.65 274.27) rotate(-90)"/>
      <path class="cls-1" d="M184.96,0h-95.64C39.99,0,0,39.99,0,89.32h0c0,49.33,39.99,89.32,89.32,89.32h95.64c49.33,0,89.32-39.99,89.32-89.32h0C274.28,39.99,234.29,0,184.96,0ZM262.71,89.33c0,42.94-34.81,77.75-77.75,77.75h-95.64c-42.94,0-77.75-34.81-77.75-77.75h0C11.57,46.39,46.38,11.58,89.32,11.58h95.64c42.94,0,77.75,34.81,77.75,77.75h0Z"/>
    </g>
  </g>
</svg>