<?xml version="1.0" encoding="UTF-8"?>
<svg id="Layer_2" data-name="Layer 2" xmlns="http://www.w3.org/2000/svg" viewBox="0 0 219.53 301.9">
  <defs>
    <style>
      .cls-1 {
        fill: #141618;
      }
    </style>
  </defs>
  <g id="Layer_1-2" data-name="Layer 1">
    <path class="cls-1" d="M129.77,45.09c-3.56-3.56-9.64-1.04-9.64,3.99v242.44c.01,5.73-4.64,10.38-10.37,10.38s-10.38-4.65-10.38-10.38V49.08c0-5.03-6.06-7.57-9.62-4.02-21.59,21.6-72.03,72.05-72.03,72.05-4.05,4.05-10.63,4.05-14.68,0-4.05-4.05-4.05-10.63,0-14.68,0,0,75.34-75.34,99.41-99.41,4.05-4.05,10.59-4.02,14.64.03l99.4,99.38c4.05,4.05,4.05,10.63,0,14.68-4.05,4.05-10.63,4.05-14.68,0l-72.04-72.04Z"/>
  </g>
</svg>