<?xml version="1.0" encoding="UTF-8"?>
<svg id="Layer_2" data-name="Layer 2" xmlns="http://www.w3.org/2000/svg" viewBox="0 0 219.54 219.53">
  <defs>
    <style>
      .cls-1 {
        fill: #131619;
      }
    </style>
  </defs>
  <g id="Layer_1-2" data-name="Layer 1">
    <path class="cls-1" d="M216.49,201.8l-74.03-74.03c-9.94-9.94-9.94-26.06,0-36L216.5,17.72c4.05-4.05,4.05-10.63,0-14.68h0c-4.05-4.05-10.63-4.05-14.68,0l-74.04,74.04c-9.94,9.94-26.06,9.94-36,0L17.72,3.04c-4.05-4.05-10.63-4.05-14.68,0h0c-4.05,4.05-4.05,10.63,0,14.68l75.29,75.29c9.25,9.25,9.25,24.25,0,33.5L3.05,201.8c-4.05,4.05-4.05,10.63,0,14.68h0c4.05,4.05,10.63,4.05,14.68,0l75.28-75.28c9.25-9.25,24.25-9.25,33.5,0l75.28,75.28c4.05,4.05,10.63,4.05,14.68,0h0c4.05-4.05,4.05-10.63,0-14.68Z"/>
  </g>
</svg>